<mxfile host="Electron" modified="2023-09-12T13:14:52.360Z" agent="Mozilla/5.0 (Windows NT 10.0; Win64; x64) AppleWebKit/537.36 (KHTML, like Gecko) draw.io/21.6.5 Chrome/114.0.5735.243 Electron/25.3.1 Safari/537.36" etag="jXj1mLTHYBnjCCt8wo9Q" version="21.6.5" type="device">
  <diagram name="Page-1" id="IN46mZwTxYKEN2QgrJ3u">
    <mxGraphModel dx="2074" dy="1197" grid="1" gridSize="10" guides="1" tooltips="1" connect="1" arrows="1" fold="1" page="1" pageScale="1" pageWidth="1654" pageHeight="1169" math="0" shadow="0">
      <root>
        <mxCell id="0" />
        <mxCell id="1" parent="0" />
        <mxCell id="tYG6d3k93D8BZe2fh9AU-1" value="Customer" style="swimlane;fontStyle=1;align=center;verticalAlign=top;childLayout=stackLayout;horizontal=1;startSize=26;horizontalStack=0;resizeParent=1;resizeParentMax=0;resizeLast=0;collapsible=1;marginBottom=0;whiteSpace=wrap;html=1;" vertex="1" parent="1">
          <mxGeometry x="720" y="840" width="200" height="190" as="geometry" />
        </mxCell>
        <mxCell id="tYG6d3k93D8BZe2fh9AU-2" value="- static counter: int" style="text;strokeColor=none;fillColor=none;align=left;verticalAlign=top;spacingLeft=4;spacingRight=4;overflow=hidden;rotatable=0;points=[[0,0.5],[1,0.5]];portConstraint=eastwest;whiteSpace=wrap;html=1;" vertex="1" parent="tYG6d3k93D8BZe2fh9AU-1">
          <mxGeometry y="26" width="200" height="26" as="geometry" />
        </mxCell>
        <mxCell id="tYG6d3k93D8BZe2fh9AU-5" value="- final id: int" style="text;strokeColor=none;fillColor=none;align=left;verticalAlign=top;spacingLeft=4;spacingRight=4;overflow=hidden;rotatable=0;points=[[0,0.5],[1,0.5]];portConstraint=eastwest;whiteSpace=wrap;html=1;" vertex="1" parent="tYG6d3k93D8BZe2fh9AU-1">
          <mxGeometry y="52" width="200" height="26" as="geometry" />
        </mxCell>
        <mxCell id="tYG6d3k93D8BZe2fh9AU-6" value="- tickets: Collection&amp;lt;Ticket&amp;gt;" style="text;strokeColor=none;fillColor=none;align=left;verticalAlign=top;spacingLeft=4;spacingRight=4;overflow=hidden;rotatable=0;points=[[0,0.5],[1,0.5]];portConstraint=eastwest;whiteSpace=wrap;html=1;" vertex="1" parent="tYG6d3k93D8BZe2fh9AU-1">
          <mxGeometry y="78" width="200" height="26" as="geometry" />
        </mxCell>
        <mxCell id="tYG6d3k93D8BZe2fh9AU-3" value="" style="line;strokeWidth=1;fillColor=none;align=left;verticalAlign=middle;spacingTop=-1;spacingLeft=3;spacingRight=3;rotatable=0;labelPosition=right;points=[];portConstraint=eastwest;strokeColor=inherit;" vertex="1" parent="tYG6d3k93D8BZe2fh9AU-1">
          <mxGeometry y="104" width="200" height="8" as="geometry" />
        </mxCell>
        <mxCell id="tYG6d3k93D8BZe2fh9AU-4" value="+ getTickets(): Collection&amp;lt;Ticket&amp;gt;" style="text;strokeColor=none;fillColor=none;align=left;verticalAlign=top;spacingLeft=4;spacingRight=4;overflow=hidden;rotatable=0;points=[[0,0.5],[1,0.5]];portConstraint=eastwest;whiteSpace=wrap;html=1;" vertex="1" parent="tYG6d3k93D8BZe2fh9AU-1">
          <mxGeometry y="112" width="200" height="26" as="geometry" />
        </mxCell>
        <mxCell id="tYG6d3k93D8BZe2fh9AU-7" value="+ setTickets(Collection&amp;lt;Ticket&amp;gt;)" style="text;strokeColor=none;fillColor=none;align=left;verticalAlign=top;spacingLeft=4;spacingRight=4;overflow=hidden;rotatable=0;points=[[0,0.5],[1,0.5]];portConstraint=eastwest;whiteSpace=wrap;html=1;" vertex="1" parent="tYG6d3k93D8BZe2fh9AU-1">
          <mxGeometry y="138" width="200" height="26" as="geometry" />
        </mxCell>
        <mxCell id="tYG6d3k93D8BZe2fh9AU-8" value="+ getId(): int" style="text;strokeColor=none;fillColor=none;align=left;verticalAlign=top;spacingLeft=4;spacingRight=4;overflow=hidden;rotatable=0;points=[[0,0.5],[1,0.5]];portConstraint=eastwest;whiteSpace=wrap;html=1;" vertex="1" parent="tYG6d3k93D8BZe2fh9AU-1">
          <mxGeometry y="164" width="200" height="26" as="geometry" />
        </mxCell>
        <mxCell id="tYG6d3k93D8BZe2fh9AU-9" value="Ticket" style="swimlane;fontStyle=1;align=center;verticalAlign=top;childLayout=stackLayout;horizontal=1;startSize=26;horizontalStack=0;resizeParent=1;resizeParentMax=0;resizeLast=0;collapsible=1;marginBottom=0;whiteSpace=wrap;html=1;" vertex="1" parent="1">
          <mxGeometry x="1200" y="800" width="200" height="290" as="geometry" />
        </mxCell>
        <mxCell id="tYG6d3k93D8BZe2fh9AU-11" value="- id: int" style="text;strokeColor=none;fillColor=none;align=left;verticalAlign=top;spacingLeft=4;spacingRight=4;overflow=hidden;rotatable=0;points=[[0,0.5],[1,0.5]];portConstraint=eastwest;whiteSpace=wrap;html=1;" vertex="1" parent="tYG6d3k93D8BZe2fh9AU-9">
          <mxGeometry y="26" width="200" height="26" as="geometry" />
        </mxCell>
        <mxCell id="tYG6d3k93D8BZe2fh9AU-10" value="- customerId: int" style="text;strokeColor=none;fillColor=none;align=left;verticalAlign=top;spacingLeft=4;spacingRight=4;overflow=hidden;rotatable=0;points=[[0,0.5],[1,0.5]];portConstraint=eastwest;whiteSpace=wrap;html=1;" vertex="1" parent="tYG6d3k93D8BZe2fh9AU-9">
          <mxGeometry y="52" width="200" height="26" as="geometry" />
        </mxCell>
        <mxCell id="tYG6d3k93D8BZe2fh9AU-12" value="- date: Date" style="text;strokeColor=none;fillColor=none;align=left;verticalAlign=top;spacingLeft=4;spacingRight=4;overflow=hidden;rotatable=0;points=[[0,0.5],[1,0.5]];portConstraint=eastwest;whiteSpace=wrap;html=1;" vertex="1" parent="tYG6d3k93D8BZe2fh9AU-9">
          <mxGeometry y="78" width="200" height="26" as="geometry" />
        </mxCell>
        <mxCell id="tYG6d3k93D8BZe2fh9AU-17" value="- enable: boolean" style="text;strokeColor=none;fillColor=none;align=left;verticalAlign=top;spacingLeft=4;spacingRight=4;overflow=hidden;rotatable=0;points=[[0,0.5],[1,0.5]];portConstraint=eastwest;whiteSpace=wrap;html=1;" vertex="1" parent="tYG6d3k93D8BZe2fh9AU-9">
          <mxGeometry y="104" width="200" height="26" as="geometry" />
        </mxCell>
        <mxCell id="tYG6d3k93D8BZe2fh9AU-13" value="" style="line;strokeWidth=1;fillColor=none;align=left;verticalAlign=middle;spacingTop=-1;spacingLeft=3;spacingRight=3;rotatable=0;labelPosition=right;points=[];portConstraint=eastwest;strokeColor=inherit;" vertex="1" parent="tYG6d3k93D8BZe2fh9AU-9">
          <mxGeometry y="130" width="200" height="8" as="geometry" />
        </mxCell>
        <mxCell id="tYG6d3k93D8BZe2fh9AU-14" value="+ setEnable(boolean)" style="text;strokeColor=none;fillColor=none;align=left;verticalAlign=top;spacingLeft=4;spacingRight=4;overflow=hidden;rotatable=0;points=[[0,0.5],[1,0.5]];portConstraint=eastwest;whiteSpace=wrap;html=1;" vertex="1" parent="tYG6d3k93D8BZe2fh9AU-9">
          <mxGeometry y="138" width="200" height="22" as="geometry" />
        </mxCell>
        <mxCell id="tYG6d3k93D8BZe2fh9AU-15" value="+ getId(): int" style="text;strokeColor=none;fillColor=none;align=left;verticalAlign=top;spacingLeft=4;spacingRight=4;overflow=hidden;rotatable=0;points=[[0,0.5],[1,0.5]];portConstraint=eastwest;whiteSpace=wrap;html=1;" vertex="1" parent="tYG6d3k93D8BZe2fh9AU-9">
          <mxGeometry y="160" width="200" height="26" as="geometry" />
        </mxCell>
        <mxCell id="tYG6d3k93D8BZe2fh9AU-16" value="+ getCustomerId(): int" style="text;strokeColor=none;fillColor=none;align=left;verticalAlign=top;spacingLeft=4;spacingRight=4;overflow=hidden;rotatable=0;points=[[0,0.5],[1,0.5]];portConstraint=eastwest;whiteSpace=wrap;html=1;" vertex="1" parent="tYG6d3k93D8BZe2fh9AU-9">
          <mxGeometry y="186" width="200" height="26" as="geometry" />
        </mxCell>
        <mxCell id="tYG6d3k93D8BZe2fh9AU-18" value="+ getDate(): Date" style="text;strokeColor=none;fillColor=none;align=left;verticalAlign=top;spacingLeft=4;spacingRight=4;overflow=hidden;rotatable=0;points=[[0,0.5],[1,0.5]];portConstraint=eastwest;whiteSpace=wrap;html=1;" vertex="1" parent="tYG6d3k93D8BZe2fh9AU-9">
          <mxGeometry y="212" width="200" height="26" as="geometry" />
        </mxCell>
        <mxCell id="tYG6d3k93D8BZe2fh9AU-19" value="+ getQrcode(): String" style="text;strokeColor=none;fillColor=none;align=left;verticalAlign=top;spacingLeft=4;spacingRight=4;overflow=hidden;rotatable=0;points=[[0,0.5],[1,0.5]];portConstraint=eastwest;whiteSpace=wrap;html=1;" vertex="1" parent="tYG6d3k93D8BZe2fh9AU-9">
          <mxGeometry y="238" width="200" height="26" as="geometry" />
        </mxCell>
        <mxCell id="tYG6d3k93D8BZe2fh9AU-20" value="+ isEnable(): boolean" style="text;strokeColor=none;fillColor=none;align=left;verticalAlign=top;spacingLeft=4;spacingRight=4;overflow=hidden;rotatable=0;points=[[0,0.5],[1,0.5]];portConstraint=eastwest;whiteSpace=wrap;html=1;" vertex="1" parent="tYG6d3k93D8BZe2fh9AU-9">
          <mxGeometry y="264" width="200" height="26" as="geometry" />
        </mxCell>
        <mxCell id="tYG6d3k93D8BZe2fh9AU-25" value="Database" style="swimlane;fontStyle=1;align=center;verticalAlign=top;childLayout=stackLayout;horizontal=1;startSize=26;horizontalStack=0;resizeParent=1;resizeParentMax=0;resizeLast=0;collapsible=1;marginBottom=0;whiteSpace=wrap;html=1;" vertex="1" parent="1">
          <mxGeometry x="240" y="800" width="240" height="242" as="geometry" />
        </mxCell>
        <mxCell id="tYG6d3k93D8BZe2fh9AU-26" value="-&amp;nbsp;static counter: int" style="text;strokeColor=none;fillColor=none;align=left;verticalAlign=top;spacingLeft=4;spacingRight=4;overflow=hidden;rotatable=0;points=[[0,0.5],[1,0.5]];portConstraint=eastwest;whiteSpace=wrap;html=1;" vertex="1" parent="tYG6d3k93D8BZe2fh9AU-25">
          <mxGeometry y="26" width="240" height="26" as="geometry" />
        </mxCell>
        <mxCell id="tYG6d3k93D8BZe2fh9AU-29" value="- tickets: Collection&amp;lt;Ticket&amp;gt;" style="text;strokeColor=none;fillColor=none;align=left;verticalAlign=top;spacingLeft=4;spacingRight=4;overflow=hidden;rotatable=0;points=[[0,0.5],[1,0.5]];portConstraint=eastwest;whiteSpace=wrap;html=1;" vertex="1" parent="tYG6d3k93D8BZe2fh9AU-25">
          <mxGeometry y="52" width="240" height="26" as="geometry" />
        </mxCell>
        <mxCell id="tYG6d3k93D8BZe2fh9AU-30" value="- customers: Collection&amp;lt;Customer&amp;gt;" style="text;strokeColor=none;fillColor=none;align=left;verticalAlign=top;spacingLeft=4;spacingRight=4;overflow=hidden;rotatable=0;points=[[0,0.5],[1,0.5]];portConstraint=eastwest;whiteSpace=wrap;html=1;" vertex="1" parent="tYG6d3k93D8BZe2fh9AU-25">
          <mxGeometry y="78" width="240" height="26" as="geometry" />
        </mxCell>
        <mxCell id="tYG6d3k93D8BZe2fh9AU-27" value="" style="line;strokeWidth=1;fillColor=none;align=left;verticalAlign=middle;spacingTop=-1;spacingLeft=3;spacingRight=3;rotatable=0;labelPosition=right;points=[];portConstraint=eastwest;strokeColor=inherit;" vertex="1" parent="tYG6d3k93D8BZe2fh9AU-25">
          <mxGeometry y="104" width="240" height="8" as="geometry" />
        </mxCell>
        <mxCell id="tYG6d3k93D8BZe2fh9AU-28" value="+ Database()" style="text;strokeColor=none;fillColor=none;align=left;verticalAlign=top;spacingLeft=4;spacingRight=4;overflow=hidden;rotatable=0;points=[[0,0.5],[1,0.5]];portConstraint=eastwest;whiteSpace=wrap;html=1;" vertex="1" parent="tYG6d3k93D8BZe2fh9AU-25">
          <mxGeometry y="112" width="240" height="26" as="geometry" />
        </mxCell>
        <mxCell id="tYG6d3k93D8BZe2fh9AU-31" value="+ getTickets(): Collection&amp;lt;Ticket&amp;gt;" style="text;strokeColor=none;fillColor=none;align=left;verticalAlign=top;spacingLeft=4;spacingRight=4;overflow=hidden;rotatable=0;points=[[0,0.5],[1,0.5]];portConstraint=eastwest;whiteSpace=wrap;html=1;" vertex="1" parent="tYG6d3k93D8BZe2fh9AU-25">
          <mxGeometry y="138" width="240" height="26" as="geometry" />
        </mxCell>
        <mxCell id="tYG6d3k93D8BZe2fh9AU-32" value="+ getCustomers(): Collection&amp;lt;Customer&amp;gt;" style="text;strokeColor=none;fillColor=none;align=left;verticalAlign=top;spacingLeft=4;spacingRight=4;overflow=hidden;rotatable=0;points=[[0,0.5],[1,0.5]];portConstraint=eastwest;whiteSpace=wrap;html=1;" vertex="1" parent="tYG6d3k93D8BZe2fh9AU-25">
          <mxGeometry y="164" width="240" height="26" as="geometry" />
        </mxCell>
        <mxCell id="tYG6d3k93D8BZe2fh9AU-33" value="+ getTicketAmount(): double" style="text;strokeColor=none;fillColor=none;align=left;verticalAlign=top;spacingLeft=4;spacingRight=4;overflow=hidden;rotatable=0;points=[[0,0.5],[1,0.5]];portConstraint=eastwest;whiteSpace=wrap;html=1;" vertex="1" parent="tYG6d3k93D8BZe2fh9AU-25">
          <mxGeometry y="190" width="240" height="26" as="geometry" />
        </mxCell>
        <mxCell id="tYG6d3k93D8BZe2fh9AU-34" value="+ createTicketOrder(int): int" style="text;strokeColor=none;fillColor=none;align=left;verticalAlign=top;spacingLeft=4;spacingRight=4;overflow=hidden;rotatable=0;points=[[0,0.5],[1,0.5]];portConstraint=eastwest;whiteSpace=wrap;html=1;" vertex="1" parent="tYG6d3k93D8BZe2fh9AU-25">
          <mxGeometry y="216" width="240" height="26" as="geometry" />
        </mxCell>
        <mxCell id="tYG6d3k93D8BZe2fh9AU-39" value="PaymentProvider" style="swimlane;fontStyle=0;childLayout=stackLayout;horizontal=1;startSize=26;fillColor=none;horizontalStack=0;resizeParent=1;resizeParentMax=0;resizeLast=0;collapsible=1;marginBottom=0;whiteSpace=wrap;html=1;" vertex="1" parent="1">
          <mxGeometry x="1200" y="439" width="240" height="52" as="geometry" />
        </mxCell>
        <mxCell id="tYG6d3k93D8BZe2fh9AU-40" value="+ buyTicket(int, String, double): boolean" style="text;strokeColor=none;fillColor=none;align=left;verticalAlign=top;spacingLeft=4;spacingRight=4;overflow=hidden;rotatable=0;points=[[0,0.5],[1,0.5]];portConstraint=eastwest;whiteSpace=wrap;html=1;" vertex="1" parent="tYG6d3k93D8BZe2fh9AU-39">
          <mxGeometry y="26" width="240" height="26" as="geometry" />
        </mxCell>
        <mxCell id="tYG6d3k93D8BZe2fh9AU-43" value="MobileApp" style="swimlane;fontStyle=1;align=center;verticalAlign=top;childLayout=stackLayout;horizontal=1;startSize=26;horizontalStack=0;resizeParent=1;resizeParentMax=0;resizeLast=0;collapsible=1;marginBottom=0;whiteSpace=wrap;html=1;" vertex="1" parent="1">
          <mxGeometry x="160" y="80" width="280" height="216" as="geometry" />
        </mxCell>
        <mxCell id="tYG6d3k93D8BZe2fh9AU-44" value="- final customer: Customer" style="text;strokeColor=none;fillColor=none;align=left;verticalAlign=top;spacingLeft=4;spacingRight=4;overflow=hidden;rotatable=0;points=[[0,0.5],[1,0.5]];portConstraint=eastwest;whiteSpace=wrap;html=1;" vertex="1" parent="tYG6d3k93D8BZe2fh9AU-43">
          <mxGeometry y="26" width="280" height="26" as="geometry" />
        </mxCell>
        <mxCell id="tYG6d3k93D8BZe2fh9AU-47" value="- final ticketProvider: TicketProvider" style="text;strokeColor=none;fillColor=none;align=left;verticalAlign=top;spacingLeft=4;spacingRight=4;overflow=hidden;rotatable=0;points=[[0,0.5],[1,0.5]];portConstraint=eastwest;whiteSpace=wrap;html=1;" vertex="1" parent="tYG6d3k93D8BZe2fh9AU-43">
          <mxGeometry y="52" width="280" height="26" as="geometry" />
        </mxCell>
        <mxCell id="tYG6d3k93D8BZe2fh9AU-48" value="- final customerProvider: CustomerProvider" style="text;strokeColor=none;fillColor=none;align=left;verticalAlign=top;spacingLeft=4;spacingRight=4;overflow=hidden;rotatable=0;points=[[0,0.5],[1,0.5]];portConstraint=eastwest;whiteSpace=wrap;html=1;" vertex="1" parent="tYG6d3k93D8BZe2fh9AU-43">
          <mxGeometry y="78" width="280" height="26" as="geometry" />
        </mxCell>
        <mxCell id="tYG6d3k93D8BZe2fh9AU-45" value="" style="line;strokeWidth=1;fillColor=none;align=left;verticalAlign=middle;spacingTop=-1;spacingLeft=3;spacingRight=3;rotatable=0;labelPosition=right;points=[];portConstraint=eastwest;strokeColor=inherit;" vertex="1" parent="tYG6d3k93D8BZe2fh9AU-43">
          <mxGeometry y="104" width="280" height="8" as="geometry" />
        </mxCell>
        <mxCell id="tYG6d3k93D8BZe2fh9AU-46" value="+ MobileApp(TicketProvider, CustomerProvider)" style="text;strokeColor=none;fillColor=none;align=left;verticalAlign=top;spacingLeft=4;spacingRight=4;overflow=hidden;rotatable=0;points=[[0,0.5],[1,0.5]];portConstraint=eastwest;whiteSpace=wrap;html=1;" vertex="1" parent="tYG6d3k93D8BZe2fh9AU-43">
          <mxGeometry y="112" width="280" height="26" as="geometry" />
        </mxCell>
        <mxCell id="tYG6d3k93D8BZe2fh9AU-50" value="+ getTickets(): Collection&amp;lt;Ticket&amp;gt;" style="text;strokeColor=none;fillColor=none;align=left;verticalAlign=top;spacingLeft=4;spacingRight=4;overflow=hidden;rotatable=0;points=[[0,0.5],[1,0.5]];portConstraint=eastwest;whiteSpace=wrap;html=1;" vertex="1" parent="tYG6d3k93D8BZe2fh9AU-43">
          <mxGeometry y="138" width="280" height="26" as="geometry" />
        </mxCell>
        <mxCell id="tYG6d3k93D8BZe2fh9AU-51" value="+ searchTicket(Date)" style="text;strokeColor=none;fillColor=none;align=left;verticalAlign=top;spacingLeft=4;spacingRight=4;overflow=hidden;rotatable=0;points=[[0,0.5],[1,0.5]];portConstraint=eastwest;whiteSpace=wrap;html=1;" vertex="1" parent="tYG6d3k93D8BZe2fh9AU-43">
          <mxGeometry y="164" width="280" height="26" as="geometry" />
        </mxCell>
        <mxCell id="tYG6d3k93D8BZe2fh9AU-49" value="+ buyTicket(String): boolean" style="text;strokeColor=none;fillColor=none;align=left;verticalAlign=top;spacingLeft=4;spacingRight=4;overflow=hidden;rotatable=0;points=[[0,0.5],[1,0.5]];portConstraint=eastwest;whiteSpace=wrap;html=1;" vertex="1" parent="tYG6d3k93D8BZe2fh9AU-43">
          <mxGeometry y="190" width="280" height="26" as="geometry" />
        </mxCell>
        <mxCell id="tYG6d3k93D8BZe2fh9AU-52" value="TicketProvider" style="swimlane;fontStyle=1;align=center;verticalAlign=top;childLayout=stackLayout;horizontal=1;startSize=26;horizontalStack=0;resizeParent=1;resizeParentMax=0;resizeLast=0;collapsible=1;marginBottom=0;whiteSpace=wrap;html=1;" vertex="1" parent="1">
          <mxGeometry x="720" y="439" width="280" height="190" as="geometry" />
        </mxCell>
        <mxCell id="tYG6d3k93D8BZe2fh9AU-53" value="- database: Database" style="text;strokeColor=none;fillColor=none;align=left;verticalAlign=top;spacingLeft=4;spacingRight=4;overflow=hidden;rotatable=0;points=[[0,0.5],[1,0.5]];portConstraint=eastwest;whiteSpace=wrap;html=1;" vertex="1" parent="tYG6d3k93D8BZe2fh9AU-52">
          <mxGeometry y="26" width="280" height="26" as="geometry" />
        </mxCell>
        <mxCell id="tYG6d3k93D8BZe2fh9AU-56" value="- final paymentProveder: PaymentProvider" style="text;strokeColor=none;fillColor=none;align=left;verticalAlign=top;spacingLeft=4;spacingRight=4;overflow=hidden;rotatable=0;points=[[0,0.5],[1,0.5]];portConstraint=eastwest;whiteSpace=wrap;html=1;" vertex="1" parent="tYG6d3k93D8BZe2fh9AU-52">
          <mxGeometry y="52" width="280" height="26" as="geometry" />
        </mxCell>
        <mxCell id="tYG6d3k93D8BZe2fh9AU-54" value="" style="line;strokeWidth=1;fillColor=none;align=left;verticalAlign=middle;spacingTop=-1;spacingLeft=3;spacingRight=3;rotatable=0;labelPosition=right;points=[];portConstraint=eastwest;strokeColor=inherit;" vertex="1" parent="tYG6d3k93D8BZe2fh9AU-52">
          <mxGeometry y="78" width="280" height="8" as="geometry" />
        </mxCell>
        <mxCell id="tYG6d3k93D8BZe2fh9AU-55" value="+ TicketProvider(Database, PaymentProvider)" style="text;strokeColor=none;fillColor=none;align=left;verticalAlign=top;spacingLeft=4;spacingRight=4;overflow=hidden;rotatable=0;points=[[0,0.5],[1,0.5]];portConstraint=eastwest;whiteSpace=wrap;html=1;" vertex="1" parent="tYG6d3k93D8BZe2fh9AU-52">
          <mxGeometry y="86" width="280" height="26" as="geometry" />
        </mxCell>
        <mxCell id="tYG6d3k93D8BZe2fh9AU-57" value="+ searchTicket(int, Date): Collection&amp;lt;Ticket&amp;gt;" style="text;strokeColor=none;fillColor=none;align=left;verticalAlign=top;spacingLeft=4;spacingRight=4;overflow=hidden;rotatable=0;points=[[0,0.5],[1,0.5]];portConstraint=eastwest;whiteSpace=wrap;html=1;" vertex="1" parent="tYG6d3k93D8BZe2fh9AU-52">
          <mxGeometry y="112" width="280" height="26" as="geometry" />
        </mxCell>
        <mxCell id="tYG6d3k93D8BZe2fh9AU-58" value="+ buyTicket(int, String): boolean" style="text;strokeColor=none;fillColor=none;align=left;verticalAlign=top;spacingLeft=4;spacingRight=4;overflow=hidden;rotatable=0;points=[[0,0.5],[1,0.5]];portConstraint=eastwest;whiteSpace=wrap;html=1;" vertex="1" parent="tYG6d3k93D8BZe2fh9AU-52">
          <mxGeometry y="138" width="280" height="26" as="geometry" />
        </mxCell>
        <mxCell id="tYG6d3k93D8BZe2fh9AU-59" value="+ checkTicket(String): boolean" style="text;strokeColor=none;fillColor=none;align=left;verticalAlign=top;spacingLeft=4;spacingRight=4;overflow=hidden;rotatable=0;points=[[0,0.5],[1,0.5]];portConstraint=eastwest;whiteSpace=wrap;html=1;" vertex="1" parent="tYG6d3k93D8BZe2fh9AU-52">
          <mxGeometry y="164" width="280" height="26" as="geometry" />
        </mxCell>
        <mxCell id="tYG6d3k93D8BZe2fh9AU-60" value="CustomerProvider" style="swimlane;fontStyle=1;align=center;verticalAlign=top;childLayout=stackLayout;horizontal=1;startSize=26;horizontalStack=0;resizeParent=1;resizeParentMax=0;resizeLast=0;collapsible=1;marginBottom=0;whiteSpace=wrap;html=1;" vertex="1" parent="1">
          <mxGeometry x="160" y="439" width="240" height="112" as="geometry" />
        </mxCell>
        <mxCell id="tYG6d3k93D8BZe2fh9AU-61" value="- database: Database" style="text;strokeColor=none;fillColor=none;align=left;verticalAlign=top;spacingLeft=4;spacingRight=4;overflow=hidden;rotatable=0;points=[[0,0.5],[1,0.5]];portConstraint=eastwest;whiteSpace=wrap;html=1;" vertex="1" parent="tYG6d3k93D8BZe2fh9AU-60">
          <mxGeometry y="26" width="240" height="26" as="geometry" />
        </mxCell>
        <mxCell id="tYG6d3k93D8BZe2fh9AU-92" value="" style="endArrow=open;endFill=1;endSize=12;html=1;rounded=0;entryX=0.414;entryY=0;entryDx=0;entryDy=0;entryPerimeter=0;" edge="1" parent="tYG6d3k93D8BZe2fh9AU-60" target="tYG6d3k93D8BZe2fh9AU-25">
          <mxGeometry width="160" relative="1" as="geometry">
            <mxPoint y="41" as="sourcePoint" />
            <mxPoint x="160" y="41" as="targetPoint" />
            <Array as="points">
              <mxPoint x="-40" y="41" />
              <mxPoint x="-40" y="281" />
              <mxPoint x="180" y="281" />
            </Array>
          </mxGeometry>
        </mxCell>
        <mxCell id="tYG6d3k93D8BZe2fh9AU-62" value="" style="line;strokeWidth=1;fillColor=none;align=left;verticalAlign=middle;spacingTop=-1;spacingLeft=3;spacingRight=3;rotatable=0;labelPosition=right;points=[];portConstraint=eastwest;strokeColor=inherit;" vertex="1" parent="tYG6d3k93D8BZe2fh9AU-60">
          <mxGeometry y="52" width="240" height="8" as="geometry" />
        </mxCell>
        <mxCell id="tYG6d3k93D8BZe2fh9AU-63" value="+ CustomerProvider(Database)&amp;nbsp;" style="text;strokeColor=none;fillColor=none;align=left;verticalAlign=top;spacingLeft=4;spacingRight=4;overflow=hidden;rotatable=0;points=[[0,0.5],[1,0.5]];portConstraint=eastwest;whiteSpace=wrap;html=1;" vertex="1" parent="tYG6d3k93D8BZe2fh9AU-60">
          <mxGeometry y="60" width="240" height="26" as="geometry" />
        </mxCell>
        <mxCell id="tYG6d3k93D8BZe2fh9AU-65" value="+ getCustomer(String, String): Customer" style="text;strokeColor=none;fillColor=none;align=left;verticalAlign=top;spacingLeft=4;spacingRight=4;overflow=hidden;rotatable=0;points=[[0,0.5],[1,0.5]];portConstraint=eastwest;whiteSpace=wrap;html=1;" vertex="1" parent="tYG6d3k93D8BZe2fh9AU-60">
          <mxGeometry y="86" width="240" height="26" as="geometry" />
        </mxCell>
        <mxCell id="tYG6d3k93D8BZe2fh9AU-66" value="BusStation" style="swimlane;fontStyle=1;align=center;verticalAlign=top;childLayout=stackLayout;horizontal=1;startSize=26;horizontalStack=0;resizeParent=1;resizeParentMax=0;resizeLast=0;collapsible=1;marginBottom=0;whiteSpace=wrap;html=1;" vertex="1" parent="1">
          <mxGeometry x="1200" y="120" width="230" height="112" as="geometry" />
        </mxCell>
        <mxCell id="tYG6d3k93D8BZe2fh9AU-67" value="- final ticketProvider: TicketProvider" style="text;strokeColor=none;fillColor=none;align=left;verticalAlign=top;spacingLeft=4;spacingRight=4;overflow=hidden;rotatable=0;points=[[0,0.5],[1,0.5]];portConstraint=eastwest;whiteSpace=wrap;html=1;" vertex="1" parent="tYG6d3k93D8BZe2fh9AU-66">
          <mxGeometry y="26" width="230" height="26" as="geometry" />
        </mxCell>
        <mxCell id="tYG6d3k93D8BZe2fh9AU-68" value="" style="line;strokeWidth=1;fillColor=none;align=left;verticalAlign=middle;spacingTop=-1;spacingLeft=3;spacingRight=3;rotatable=0;labelPosition=right;points=[];portConstraint=eastwest;strokeColor=inherit;" vertex="1" parent="tYG6d3k93D8BZe2fh9AU-66">
          <mxGeometry y="52" width="230" height="8" as="geometry" />
        </mxCell>
        <mxCell id="tYG6d3k93D8BZe2fh9AU-70" value="+ BusStation(TicketProvider)" style="text;strokeColor=none;fillColor=none;align=left;verticalAlign=top;spacingLeft=4;spacingRight=4;overflow=hidden;rotatable=0;points=[[0,0.5],[1,0.5]];portConstraint=eastwest;whiteSpace=wrap;html=1;" vertex="1" parent="tYG6d3k93D8BZe2fh9AU-66">
          <mxGeometry y="60" width="230" height="26" as="geometry" />
        </mxCell>
        <mxCell id="tYG6d3k93D8BZe2fh9AU-69" value="+ checkTicket(String): boolean" style="text;strokeColor=none;fillColor=none;align=left;verticalAlign=top;spacingLeft=4;spacingRight=4;overflow=hidden;rotatable=0;points=[[0,0.5],[1,0.5]];portConstraint=eastwest;whiteSpace=wrap;html=1;" vertex="1" parent="tYG6d3k93D8BZe2fh9AU-66">
          <mxGeometry y="86" width="230" height="26" as="geometry" />
        </mxCell>
        <mxCell id="tYG6d3k93D8BZe2fh9AU-71" value="Core" style="swimlane;fontStyle=1;align=center;verticalAlign=top;childLayout=stackLayout;horizontal=1;startSize=26;horizontalStack=0;resizeParent=1;resizeParentMax=0;resizeLast=0;collapsible=1;marginBottom=0;whiteSpace=wrap;html=1;" vertex="1" parent="1">
          <mxGeometry x="720" y="80" width="280" height="216" as="geometry" />
        </mxCell>
        <mxCell id="tYG6d3k93D8BZe2fh9AU-76" value="- final customerProvider: CustomerProvider" style="text;strokeColor=none;fillColor=none;align=left;verticalAlign=top;spacingLeft=4;spacingRight=4;overflow=hidden;rotatable=0;points=[[0,0.5],[1,0.5]];portConstraint=eastwest;whiteSpace=wrap;html=1;" vertex="1" parent="tYG6d3k93D8BZe2fh9AU-71">
          <mxGeometry y="26" width="280" height="26" as="geometry" />
        </mxCell>
        <mxCell id="tYG6d3k93D8BZe2fh9AU-77" value="- final ticketProvider: TicketProvider" style="text;strokeColor=none;fillColor=none;align=left;verticalAlign=top;spacingLeft=4;spacingRight=4;overflow=hidden;rotatable=0;points=[[0,0.5],[1,0.5]];portConstraint=eastwest;whiteSpace=wrap;html=1;" vertex="1" parent="tYG6d3k93D8BZe2fh9AU-71">
          <mxGeometry y="52" width="280" height="26" as="geometry" />
        </mxCell>
        <mxCell id="tYG6d3k93D8BZe2fh9AU-72" value="- final paymentProvider: PaymentProvider" style="text;strokeColor=none;fillColor=none;align=left;verticalAlign=top;spacingLeft=4;spacingRight=4;overflow=hidden;rotatable=0;points=[[0,0.5],[1,0.5]];portConstraint=eastwest;whiteSpace=wrap;html=1;" vertex="1" parent="tYG6d3k93D8BZe2fh9AU-71">
          <mxGeometry y="78" width="280" height="26" as="geometry" />
        </mxCell>
        <mxCell id="tYG6d3k93D8BZe2fh9AU-78" value="- final database: Database" style="text;strokeColor=none;fillColor=none;align=left;verticalAlign=top;spacingLeft=4;spacingRight=4;overflow=hidden;rotatable=0;points=[[0,0.5],[1,0.5]];portConstraint=eastwest;whiteSpace=wrap;html=1;" vertex="1" parent="tYG6d3k93D8BZe2fh9AU-71">
          <mxGeometry y="104" width="280" height="26" as="geometry" />
        </mxCell>
        <mxCell id="tYG6d3k93D8BZe2fh9AU-91" value="" style="endArrow=open;endFill=1;endSize=12;html=1;rounded=0;entryX=0.5;entryY=0;entryDx=0;entryDy=0;" edge="1" parent="tYG6d3k93D8BZe2fh9AU-71" target="tYG6d3k93D8BZe2fh9AU-25">
          <mxGeometry width="160" relative="1" as="geometry">
            <mxPoint y="120" as="sourcePoint" />
            <mxPoint x="-180" y="240" as="targetPoint" />
            <Array as="points">
              <mxPoint x="-200" y="120" />
              <mxPoint x="-200" y="640" />
              <mxPoint x="-360" y="640" />
            </Array>
          </mxGeometry>
        </mxCell>
        <mxCell id="tYG6d3k93D8BZe2fh9AU-73" value="" style="line;strokeWidth=1;fillColor=none;align=left;verticalAlign=middle;spacingTop=-1;spacingLeft=3;spacingRight=3;rotatable=0;labelPosition=right;points=[];portConstraint=eastwest;strokeColor=inherit;" vertex="1" parent="tYG6d3k93D8BZe2fh9AU-71">
          <mxGeometry y="130" width="280" height="8" as="geometry" />
        </mxCell>
        <mxCell id="tYG6d3k93D8BZe2fh9AU-79" value="+ Core()" style="text;strokeColor=none;fillColor=none;align=left;verticalAlign=top;spacingLeft=4;spacingRight=4;overflow=hidden;rotatable=0;points=[[0,0.5],[1,0.5]];portConstraint=eastwest;whiteSpace=wrap;html=1;" vertex="1" parent="tYG6d3k93D8BZe2fh9AU-71">
          <mxGeometry y="138" width="280" height="26" as="geometry" />
        </mxCell>
        <mxCell id="tYG6d3k93D8BZe2fh9AU-74" value="+ getTicketProvider(): TicketProvider" style="text;strokeColor=none;fillColor=none;align=left;verticalAlign=top;spacingLeft=4;spacingRight=4;overflow=hidden;rotatable=0;points=[[0,0.5],[1,0.5]];portConstraint=eastwest;whiteSpace=wrap;html=1;" vertex="1" parent="tYG6d3k93D8BZe2fh9AU-71">
          <mxGeometry y="164" width="280" height="26" as="geometry" />
        </mxCell>
        <mxCell id="tYG6d3k93D8BZe2fh9AU-80" value="+ getCustomerProvider(): CustomerProvider" style="text;strokeColor=none;fillColor=none;align=left;verticalAlign=top;spacingLeft=4;spacingRight=4;overflow=hidden;rotatable=0;points=[[0,0.5],[1,0.5]];portConstraint=eastwest;whiteSpace=wrap;html=1;" vertex="1" parent="tYG6d3k93D8BZe2fh9AU-71">
          <mxGeometry y="190" width="280" height="26" as="geometry" />
        </mxCell>
        <mxCell id="tYG6d3k93D8BZe2fh9AU-82" value="" style="endArrow=diamondThin;endFill=1;endSize=24;html=1;rounded=0;entryX=0.993;entryY=0.051;entryDx=0;entryDy=0;entryPerimeter=0;" edge="1" parent="1" target="tYG6d3k93D8BZe2fh9AU-6">
          <mxGeometry width="160" relative="1" as="geometry">
            <mxPoint x="1280" y="800" as="sourcePoint" />
            <mxPoint x="1070" y="1030" as="targetPoint" />
            <Array as="points">
              <mxPoint x="1280" y="760" />
              <mxPoint x="1040" y="760" />
              <mxPoint x="1040" y="919" />
            </Array>
          </mxGeometry>
        </mxCell>
        <mxCell id="tYG6d3k93D8BZe2fh9AU-83" value="0..n" style="edgeLabel;html=1;align=center;verticalAlign=middle;resizable=0;points=[];" vertex="1" connectable="0" parent="tYG6d3k93D8BZe2fh9AU-82">
          <mxGeometry x="0.8323" y="-1" relative="1" as="geometry">
            <mxPoint as="offset" />
          </mxGeometry>
        </mxCell>
        <mxCell id="tYG6d3k93D8BZe2fh9AU-84" value="" style="endArrow=diamondThin;endFill=1;endSize=24;html=1;rounded=0;entryX=1;entryY=0.5;entryDx=0;entryDy=0;" edge="1" parent="1" target="tYG6d3k93D8BZe2fh9AU-30">
          <mxGeometry width="160" relative="1" as="geometry">
            <mxPoint x="840" y="840" as="sourcePoint" />
            <mxPoint x="1070" y="620" as="targetPoint" />
            <Array as="points">
              <mxPoint x="840" y="760" />
              <mxPoint x="640" y="760" />
              <mxPoint x="640" y="890" />
            </Array>
          </mxGeometry>
        </mxCell>
        <mxCell id="tYG6d3k93D8BZe2fh9AU-85" value="0..n" style="edgeLabel;html=1;align=center;verticalAlign=middle;resizable=0;points=[];" vertex="1" connectable="0" parent="tYG6d3k93D8BZe2fh9AU-84">
          <mxGeometry x="0.9294" y="-2" relative="1" as="geometry">
            <mxPoint x="22" y="2" as="offset" />
          </mxGeometry>
        </mxCell>
        <mxCell id="tYG6d3k93D8BZe2fh9AU-86" value="" style="endArrow=diamondThin;endFill=1;endSize=24;html=1;rounded=0;entryX=1;entryY=0.5;entryDx=0;entryDy=0;exitX=0.5;exitY=0;exitDx=0;exitDy=0;" edge="1" parent="1" source="tYG6d3k93D8BZe2fh9AU-9" target="tYG6d3k93D8BZe2fh9AU-29">
          <mxGeometry width="160" relative="1" as="geometry">
            <mxPoint x="910" y="580" as="sourcePoint" />
            <mxPoint x="1070" y="580" as="targetPoint" />
            <Array as="points">
              <mxPoint x="1300" y="720" />
              <mxPoint x="600" y="720" />
              <mxPoint x="600" y="865" />
            </Array>
          </mxGeometry>
        </mxCell>
        <mxCell id="tYG6d3k93D8BZe2fh9AU-87" value="0..n" style="edgeLabel;html=1;align=center;verticalAlign=middle;resizable=0;points=[];" vertex="1" connectable="0" parent="tYG6d3k93D8BZe2fh9AU-86">
          <mxGeometry x="0.9024" y="1" relative="1" as="geometry">
            <mxPoint as="offset" />
          </mxGeometry>
        </mxCell>
        <mxCell id="tYG6d3k93D8BZe2fh9AU-88" value="" style="endArrow=open;endFill=1;endSize=12;html=1;rounded=0;entryX=0.586;entryY=0.003;entryDx=0;entryDy=0;exitX=0;exitY=0.5;exitDx=0;exitDy=0;entryPerimeter=0;" edge="1" parent="1" source="tYG6d3k93D8BZe2fh9AU-53" target="tYG6d3k93D8BZe2fh9AU-25">
          <mxGeometry width="160" relative="1" as="geometry">
            <mxPoint x="910" y="480" as="sourcePoint" />
            <mxPoint x="1070" y="480" as="targetPoint" />
            <Array as="points">
              <mxPoint x="560" y="480" />
              <mxPoint x="560" y="760" />
              <mxPoint x="381" y="760" />
            </Array>
          </mxGeometry>
        </mxCell>
        <mxCell id="tYG6d3k93D8BZe2fh9AU-93" value="" style="endArrow=open;endFill=1;endSize=12;html=1;rounded=0;exitX=1;exitY=0.5;exitDx=0;exitDy=0;entryX=0.344;entryY=-0.007;entryDx=0;entryDy=0;entryPerimeter=0;" edge="1" parent="1" source="tYG6d3k93D8BZe2fh9AU-56" target="tYG6d3k93D8BZe2fh9AU-39">
          <mxGeometry width="160" relative="1" as="geometry">
            <mxPoint x="740" y="380" as="sourcePoint" />
            <mxPoint x="1282" y="440" as="targetPoint" />
            <Array as="points">
              <mxPoint x="1160" y="504" />
              <mxPoint x="1160" y="400" />
              <mxPoint x="1282" y="400" />
            </Array>
          </mxGeometry>
        </mxCell>
        <mxCell id="tYG6d3k93D8BZe2fh9AU-94" value="" style="endArrow=open;endFill=1;endSize=12;html=1;rounded=0;exitX=0;exitY=0.5;exitDx=0;exitDy=0;entryX=0.572;entryY=-0.006;entryDx=0;entryDy=0;entryPerimeter=0;" edge="1" parent="1" source="tYG6d3k93D8BZe2fh9AU-67" target="tYG6d3k93D8BZe2fh9AU-52">
          <mxGeometry width="160" relative="1" as="geometry">
            <mxPoint x="740" y="380" as="sourcePoint" />
            <mxPoint x="900" y="380" as="targetPoint" />
            <Array as="points">
              <mxPoint x="1160" y="159" />
              <mxPoint x="1160" y="360" />
              <mxPoint x="880" y="360" />
            </Array>
          </mxGeometry>
        </mxCell>
        <mxCell id="tYG6d3k93D8BZe2fh9AU-97" value="" style="endArrow=open;endFill=1;endSize=12;html=1;rounded=0;exitX=1;exitY=0.5;exitDx=0;exitDy=0;entryX=0.5;entryY=0;entryDx=0;entryDy=0;" edge="1" parent="1" source="tYG6d3k93D8BZe2fh9AU-48" target="tYG6d3k93D8BZe2fh9AU-60">
          <mxGeometry width="160" relative="1" as="geometry">
            <mxPoint x="370" y="210" as="sourcePoint" />
            <mxPoint x="530" y="210" as="targetPoint" />
            <Array as="points">
              <mxPoint x="480" y="171" />
              <mxPoint x="480" y="320" />
              <mxPoint x="280" y="320" />
            </Array>
          </mxGeometry>
        </mxCell>
        <mxCell id="tYG6d3k93D8BZe2fh9AU-98" value="" style="endArrow=open;endFill=1;endSize=12;html=1;rounded=0;exitX=0.999;exitY=0.149;exitDx=0;exitDy=0;exitPerimeter=0;entryX=0.43;entryY=0.001;entryDx=0;entryDy=0;entryPerimeter=0;" edge="1" parent="1" source="tYG6d3k93D8BZe2fh9AU-47" target="tYG6d3k93D8BZe2fh9AU-52">
          <mxGeometry width="160" relative="1" as="geometry">
            <mxPoint x="740" y="610" as="sourcePoint" />
            <mxPoint x="840" y="430" as="targetPoint" />
            <Array as="points">
              <mxPoint x="560" y="136" />
              <mxPoint x="560" y="400" />
              <mxPoint x="840" y="400" />
            </Array>
          </mxGeometry>
        </mxCell>
        <mxCell id="tYG6d3k93D8BZe2fh9AU-99" value="" style="endArrow=open;endFill=1;endSize=12;html=1;rounded=0;exitX=1;exitY=0.5;exitDx=0;exitDy=0;entryX=0.5;entryY=0;entryDx=0;entryDy=0;" edge="1" parent="1" source="tYG6d3k93D8BZe2fh9AU-72" target="tYG6d3k93D8BZe2fh9AU-39">
          <mxGeometry width="160" relative="1" as="geometry">
            <mxPoint x="620" y="350" as="sourcePoint" />
            <mxPoint x="780" y="350" as="targetPoint" />
            <Array as="points">
              <mxPoint x="1080" y="171" />
              <mxPoint x="1080" y="320" />
              <mxPoint x="1320" y="320" />
            </Array>
          </mxGeometry>
        </mxCell>
        <mxCell id="tYG6d3k93D8BZe2fh9AU-100" value="" style="endArrow=open;endFill=1;endSize=12;html=1;rounded=0;exitX=0;exitY=0.5;exitDx=0;exitDy=0;entryX=0.5;entryY=0;entryDx=0;entryDy=0;" edge="1" parent="1" source="tYG6d3k93D8BZe2fh9AU-77" target="tYG6d3k93D8BZe2fh9AU-52">
          <mxGeometry width="160" relative="1" as="geometry">
            <mxPoint x="620" y="350" as="sourcePoint" />
            <mxPoint x="780" y="350" as="targetPoint" />
            <Array as="points">
              <mxPoint x="680" y="145" />
              <mxPoint x="680" y="360" />
              <mxPoint x="860" y="360" />
            </Array>
          </mxGeometry>
        </mxCell>
        <mxCell id="tYG6d3k93D8BZe2fh9AU-101" value="" style="endArrow=open;endFill=1;endSize=12;html=1;rounded=0;exitX=0;exitY=0.5;exitDx=0;exitDy=0;entryX=0.667;entryY=-0.021;entryDx=0;entryDy=0;entryPerimeter=0;" edge="1" parent="1" source="tYG6d3k93D8BZe2fh9AU-76" target="tYG6d3k93D8BZe2fh9AU-60">
          <mxGeometry width="160" relative="1" as="geometry">
            <mxPoint x="340" y="100" as="sourcePoint" />
            <mxPoint x="500" y="100" as="targetPoint" />
            <Array as="points">
              <mxPoint x="640" y="120" />
              <mxPoint x="640" y="360" />
              <mxPoint x="320" y="360" />
            </Array>
          </mxGeometry>
        </mxCell>
        <mxCell id="tYG6d3k93D8BZe2fh9AU-102" value="" style="endArrow=open;endFill=1;endSize=12;html=1;rounded=0;exitX=0;exitY=0.5;exitDx=0;exitDy=0;entryX=0.403;entryY=-0.014;entryDx=0;entryDy=0;entryPerimeter=0;" edge="1" parent="1" source="tYG6d3k93D8BZe2fh9AU-44" target="tYG6d3k93D8BZe2fh9AU-1">
          <mxGeometry width="160" relative="1" as="geometry">
            <mxPoint x="300" y="560" as="sourcePoint" />
            <mxPoint x="460" y="560" as="targetPoint" />
            <Array as="points">
              <mxPoint x="80" y="120" />
              <mxPoint x="80" y="1080" />
              <mxPoint x="680" y="1080" />
              <mxPoint x="680" y="800" />
              <mxPoint x="801" y="800" />
            </Array>
          </mxGeometry>
        </mxCell>
      </root>
    </mxGraphModel>
  </diagram>
</mxfile>
